<svg id="visual" viewBox="0 0 900 600" width="900" height="600" xmlns="http://www.w3.org/2000/svg" xmlns:xlink="http://www.w3.org/1999/xlink" version="1.1"><path d="M0 175L90 115L180 181L270 211L360 127L450 181L540 145L630 97L720 115L810 151L900 163L900 0L810 0L720 0L630 0L540 0L450 0L360 0L270 0L180 0L90 0L0 0Z" fill="#f5f5f5"></path><path d="M0 289L90 301L180 301L270 301L360 331L450 301L540 283L630 337L720 277L810 259L900 289L900 161L810 149L720 113L630 95L540 143L450 179L360 125L270 209L180 179L90 113L0 173Z" fill="#eceef7"></path><path d="M0 367L90 355L180 355L270 355L360 409L450 403L540 385L630 427L720 391L810 319L900 409L900 287L810 257L720 275L630 335L540 281L450 299L360 329L270 299L180 299L90 299L0 287Z" fill="#e3e7f9"></path><path d="M0 439L90 433L180 439L270 397L360 475L450 463L540 469L630 517L720 475L810 415L900 451L900 407L810 317L720 389L630 425L540 383L450 401L360 407L270 353L180 353L90 353L0 365Z" fill="#dae0fb"></path><path d="M0 535L90 517L180 535L270 529L360 559L450 553L540 535L630 571L720 565L810 553L900 547L900 449L810 413L720 473L630 515L540 467L450 461L360 473L270 395L180 437L90 431L0 437Z" fill="#d1d9fc"></path><path d="M0 601L90 601L180 601L270 601L360 601L450 601L540 601L630 601L720 601L810 601L900 601L900 545L810 551L720 563L630 569L540 533L450 551L360 557L270 527L180 533L90 515L0 533Z" fill="#c7d2fe"></path></svg>