<svg id="visual" viewBox="0 0 600 900" width="600" height="900" xmlns="http://www.w3.org/2000/svg" xmlns:xlink="http://www.w3.org/1999/xlink" version="1.1"><rect x="0" y="0" width="600" height="900" fill="#27272c"></rect><path d="M0 628L86 628L86 621L171 621L171 662L257 662L257 602L343 602L343 646L429 646L429 581L514 581L514 591L600 591L600 541L600 901L600 901L514 901L514 901L429 901L429 901L343 901L343 901L257 901L257 901L171 901L171 901L86 901L86 901L0 901Z" fill="#9900ff"></path><path d="M0 694L86 694L86 713L171 713L171 640L257 640L257 699L343 699L343 638L429 638L429 750L514 750L514 668L600 668L600 627L600 901L600 901L514 901L514 901L429 901L429 901L343 901L343 901L257 901L257 901L171 901L171 901L86 901L86 901L0 901Z" fill="#7700c6"></path><path d="M0 790L86 790L86 756L171 756L171 768L257 768L257 739L343 739L343 738L429 738L429 759L514 759L514 803L600 803L600 786L600 901L600 901L514 901L514 901L429 901L429 901L343 901L343 901L257 901L257 901L171 901L171 901L86 901L86 901L0 901Z" fill="#560090"></path></svg>