<svg id="visual" viewBox="0 0 900 600" width="900" height="600" xmlns="http://www.w3.org/2000/svg" xmlns:xlink="http://www.w3.org/1999/xlink" version="1.1"><rect x="0" y="0" width="900" height="600" fill="#f8f9fa"></rect><defs><linearGradient id="grad1_0" x1="33.3%" y1="100%" x2="100%" y2="0%"><stop offset="20%" stop-color="#34d399" stop-opacity="1"></stop><stop offset="80%" stop-color="#34d399" stop-opacity="1"></stop></linearGradient></defs><defs><linearGradient id="grad1_1" x1="33.3%" y1="100%" x2="100%" y2="0%"><stop offset="20%" stop-color="#34d399" stop-opacity="1"></stop><stop offset="80%" stop-color="#f8f9fa" stop-opacity="1"></stop></linearGradient></defs><defs><linearGradient id="grad2_0" x1="0%" y1="100%" x2="66.7%" y2="0%"><stop offset="20%" stop-color="#34d399" stop-opacity="1"></stop><stop offset="80%" stop-color="#34d399" stop-opacity="1"></stop></linearGradient></defs><defs><linearGradient id="grad2_1" x1="0%" y1="100%" x2="66.7%" y2="0%"><stop offset="20%" stop-color="#f8f9fa" stop-opacity="1"></stop><stop offset="80%" stop-color="#34d399" stop-opacity="1"></stop></linearGradient></defs><g transform="translate(900, 600)"><path d="M-216.3 0C-207.8 -21.9 -199.3 -43.9 -187.4 -60.9C-175.4 -77.9 -160 -90 -151.3 -109.9C-142.5 -129.9 -140.4 -157.6 -127.2 -175C-113.9 -192.4 -89.5 -199.3 -66.4 -204.5C-43.4 -209.6 -21.7 -213 0 -216.3L0 0Z" fill="#8be8f3"></path><path d="M-108.2 0C-103.9 -11 -99.7 -21.9 -93.7 -30.4C-87.7 -38.9 -80 -45 -75.6 -55C-71.3 -64.9 -70.2 -78.8 -63.6 -87.5C-56.9 -96.2 -44.7 -99.7 -33.2 -102.2C-21.7 -104.8 -10.8 -106.5 0 -108.2L0 0Z" fill="#34d399"></path></g><g transform="translate(0, 0)"><path d="M216.3 0C206.9 19.8 197.4 39.6 193.1 62.7C188.7 85.9 189.5 112.5 175 127.2C160.6 141.8 130.9 144.6 109.3 150.5C87.8 156.4 74.3 165.4 57.5 176.9C40.6 188.4 20.3 202.4 0 216.3L0 0Z" fill="#8be8f3"></path><path d="M108.2 0C103.4 9.9 98.7 19.8 96.5 31.4C94.4 43 94.7 56.2 87.5 63.6C80.3 70.9 65.4 72.3 54.7 75.2C43.9 78.2 37.2 82.7 28.7 88.4C20.3 94.2 10.2 101.2 0 108.2L0 0Z" fill="#34d399"></path></g></svg>